<svg width="87" height="68" viewBox="0 0 87 68" fill="none" xmlns="http://www.w3.org/2000/svg">
<path d="M29.7614 30.246V37.014H18.6694V49.046H11.1494V37.014H0.0574219V30.246H11.1494V18.214H18.6694V30.246H29.7614ZM86.0689 48.106C86.0689 52.054 84.9722 55.5007 82.7789 58.446C80.6482 61.3913 77.7656 63.6787 74.1309 65.308C70.5589 66.9373 66.6422 67.752 62.3809 67.752C57.9316 67.752 53.9522 66.8747 50.4429 65.12C46.9336 63.3027 44.1449 60.89 42.0769 57.882C40.0716 54.874 39.0689 51.49 39.0689 47.73C39.0689 44.9727 39.6956 42.4973 40.9489 40.304C42.2022 38.1107 43.7689 36.262 45.6489 34.758C47.5916 33.1913 49.5656 32.032 51.5709 31.28C49.7536 30.4653 48.0616 29.4 46.4949 28.084C44.9282 26.768 43.6749 25.2327 42.7349 23.478C41.7949 21.7233 41.3249 19.812 41.3249 17.744C41.3249 14.924 41.9516 12.4487 43.2049 10.318C44.4582 8.12466 46.1189 6.276 48.1869 4.77199C50.2549 3.268 52.5422 2.14 55.0489 1.388C57.5556 0.635997 60.0622 0.259996 62.5689 0.259996C65.0756 0.259996 67.5822 0.635997 70.0889 1.388C72.5956 2.14 74.8829 3.268 76.9509 4.77199C79.0816 6.21333 80.7736 8.03066 82.0269 10.224C83.2802 12.3547 83.9069 14.83 83.9069 17.65C83.9069 19.718 83.4369 21.6607 82.4969 23.478C81.5569 25.2327 80.2722 26.768 78.6429 28.084C77.0762 29.4 75.3529 30.4653 73.4729 31.28C75.7289 32.1573 77.7969 33.4107 79.6769 35.04C81.6196 36.6067 83.1549 38.4867 84.2829 40.68C85.4736 42.8733 86.0689 45.3487 86.0689 48.106ZM77.7029 47.542C77.7029 45.5367 77.2642 43.7507 76.3869 42.184C75.5096 40.5547 74.3189 39.2073 72.8149 38.142C71.3109 37.014 69.6502 36.168 67.8329 35.604C66.0782 35.04 64.2922 34.758 62.4749 34.758C59.9682 34.758 57.5556 35.2907 55.2369 36.356C52.9809 37.4213 51.1322 38.9253 49.6909 40.868C48.2496 42.748 47.5289 45.004 47.5289 47.636C47.5289 49.5787 47.9676 51.3333 48.8449 52.9C49.7222 54.4667 50.8816 55.814 52.3229 56.942C53.8269 58.07 55.4562 58.916 57.2109 59.48C59.0282 60.044 60.8456 60.326 62.6629 60.326C65.1696 60.326 67.5509 59.7933 69.8069 58.728C72.1256 57.6627 74.0056 56.1587 75.4469 54.216C76.9509 52.2733 77.7029 50.0487 77.7029 47.542ZM49.6909 18.026C49.6909 20.2193 50.3489 22.0993 51.6649 23.666C52.9809 25.2327 54.6416 26.4233 56.6469 27.238C58.6522 27.99 60.6262 28.366 62.5689 28.366C64.5742 28.366 66.5482 27.9587 68.4909 27.144C70.4962 26.3293 72.1569 25.1387 73.4729 23.572C74.7889 22.0053 75.4469 20.094 75.4469 17.838C75.4469 15.7073 74.8202 13.89 73.5669 12.386C72.3762 10.882 70.7782 9.72266 68.7729 8.908C66.8302 8.09333 64.7309 7.686 62.4749 7.686C60.2816 7.686 58.1822 8.12466 56.1769 9.002C54.2342 9.81666 52.6676 11.0073 51.4769 12.574C50.2862 14.078 49.6909 15.8953 49.6909 18.026Z" fill="url(#paint0_linear_1_343)"/>
<defs>
<linearGradient id="paint0_linear_1_343" x1="52.8909" y1="-12.7496" x2="93.6143" y2="-3.71749" gradientUnits="userSpaceOnUse">
<stop stop-color="#0E1F40"/>
<stop offset="1" stop-color="#D12B38"/>
</linearGradient>
</defs>
</svg>
