<svg width="83" height="110" viewBox="0 0 83 110" fill="none" xmlns="http://www.w3.org/2000/svg">
<path d="M79.7163 26.0022C78.5244 23.1264 77.3299 20.8201 75.9557 18.7446C74.4755 16.4991 72.7897 14.397 70.92 12.4656C67.3268 8.77586 63.0367 5.76126 58.5123 3.74881C55.6991 2.49747 53.1431 1.62058 50.6979 1.06601C47.9468 0.440661 45.141 0.087984 42.321 0.0130642C36.9707 -0.122363 31.5927 0.797186 26.7739 2.67488C21.616 4.68191 17.0227 7.54348 13.1176 11.1783C9.3839 14.6534 6.27894 18.8807 4.13625 23.4013C1.71265 28.5204 0.336419 33.9355 0.0487475 39.4974C-0.112646 42.6123 0.12708 45.9411 0.762524 49.3883C1.33112 52.4734 2.34337 55.6011 3.85804 58.9515C5.10394 61.7054 6.80971 64.4553 9.0726 67.3602C10.9478 69.7649 13.1069 71.9327 15.5027 73.816C16.7925 74.8317 17.8824 75.6266 18.921 76.3132C19.4999 77.1646 20.0325 78.0239 20.5187 78.8911C21.0049 79.7583 21.4411 80.6261 21.8274 81.4947C22.4982 83.1462 22.9845 84.8671 23.2772 86.626C23.2941 86.7824 23.3083 86.9253 23.3191 87.0594C23.1216 87.5783 23.0202 88.129 23.02 88.6845V103.399C23.02 103.624 23.02 103.849 23.02 104.076C23.02 104.529 23.02 104.981 23.02 105.43V105.448C23.0576 106.656 23.5357 107.809 24.3638 108.688L24.4036 108.722L25.0181 109.196L25.2329 109.361L25.2666 109.381C25.9599 109.787 26.7484 110.001 27.5511 110H55.1562C55.2007 110 55.246 110 55.2912 110C56.4477 109.924 57.542 109.448 58.3867 108.652L58.4225 108.61C58.6251 108.344 58.8324 108.078 59.0377 107.812L59.062 107.78L59.0823 107.746C59.4868 107.05 59.6996 106.259 59.6988 105.454V90.7457C59.6988 90.5175 59.6988 90.2879 59.6988 90.0591C59.6988 89.6765 59.6988 89.2932 59.6988 88.9039V88.6967C59.7136 88.308 59.6666 87.9194 59.5597 87.5456L59.534 87.4629C59.4955 87.3275 59.451 87.1921 59.399 87.0567C59.4105 86.9212 59.4246 86.7784 59.4415 86.6199C59.579 85.7678 59.7662 84.9244 60.002 84.0942C60.2518 83.2123 60.5476 82.3442 60.888 81.4933C61.701 79.6836 62.6727 77.9499 63.7917 76.3126C68.0967 73.4984 71.8762 69.8723 75.0278 65.5333C76.4963 63.5113 77.7602 61.3475 78.8006 59.0741C80.0898 56.2525 81.0048 53.6408 81.5977 51.0913C82.3346 47.9394 82.7112 44.7135 82.72 41.476V41.455C82.7126 36.0678 81.6747 30.7218 79.7163 26.0022ZM32.0837 100.916V93.2301H50.6371V100.916H32.0837ZM73.399 45.8456C72.9728 48.6679 72.2197 51.4308 71.155 54.0782C70.0313 56.6327 68.6217 59.0509 66.9534 61.2863C65.2286 63.4524 63.2673 65.418 61.1061 67.1462C60.3727 67.696 59.6367 68.2086 58.9175 68.6704C58.8324 68.7246 58.7473 68.7774 58.6616 68.8309C58.5501 68.8986 58.4353 68.9711 58.3239 69.0462C57.4589 69.6137 56.9288 70.3612 56.4608 71.0214C56.0827 71.5537 55.718 72.0974 55.3743 72.6378C54.204 74.4789 53.1668 76.5414 52.2045 78.9439C51.5301 80.6216 51.0269 82.3635 50.7026 84.1429H32.0154C31.9959 84.0366 31.977 83.9317 31.9581 83.8274C31.685 82.3706 31.2841 80.9408 30.7601 79.5547C29.9565 77.3794 28.9528 75.2839 27.7618 73.2953C27.4397 72.7644 27.0953 72.2281 26.7374 71.7006C26.5564 71.4345 26.366 71.1589 26.1681 70.8826C25.8778 70.4763 24.5664 69.1505 24.097 68.8553C23.2637 68.3312 22.4325 67.7577 21.6248 67.1496C19.4589 65.4197 17.4938 63.4511 15.7667 61.2809C14.0937 59.0402 12.6807 56.6158 11.555 54.0545C10.4959 51.413 9.74649 48.6571 9.32178 45.8422C8.97738 42.9328 8.97738 39.9928 9.32178 37.0835C9.74767 34.2681 10.5001 31.5122 11.5637 28.8719C12.6836 26.3242 14.0882 23.9121 15.7505 21.682C17.4787 19.5077 19.4456 17.5354 21.614 15.8025C23.8405 14.1334 26.249 12.7233 28.793 11.5995C31.4369 10.5282 34.1969 9.7714 37.0166 9.34465C39.9021 9.00405 42.8174 9.00405 45.7028 9.34465C48.5204 9.77121 51.2784 10.5275 53.9204 11.5982C56.4648 12.7233 58.8734 14.1347 61.1 15.8052C63.2639 17.5338 65.2273 19.5005 66.9534 21.6685C68.6228 23.903 70.0331 26.3208 71.1571 28.8752C72.2214 31.5184 72.9738 34.2773 73.399 37.0957C73.7483 40.002 73.7483 42.9399 73.399 45.8463V45.8456Z" fill="url(#paint0_linear_8_18)"/>
<defs>
<linearGradient id="paint0_linear_8_18" x1="41.36" y1="0" x2="41.36" y2="110" gradientUnits="userSpaceOnUse">
<stop stop-color="#0E1F40"/>
<stop offset="1" stop-color="#E21C34"/>
</linearGradient>
</defs>
</svg>
