<svg width="118" height="110" viewBox="0 0 118 110" fill="none" xmlns="http://www.w3.org/2000/svg">
<path d="M115.701 2.07155C114.465 0.818191 112.799 0.0801303 111.041 0.0061507C109.282 -0.0678289 107.56 0.527773 106.223 1.67289L78.5225 26.1402L72.1768 31.7432L36.0265 63.6703C34.4046 63.4974 32.4823 63.7832 30.3124 64.5332C26.4897 65.8529 22.5268 68.4214 19.4322 71.5815C15.5003 75.5954 13.0064 80.4557 12.2273 85.6365C10.6163 96.3437 7.55991 99.3437 7.11756 99.7296L0 103.434L7.58721 106.685C8.0514 106.882 15.4766 110 24.5055 110C29.1511 110 34.228 109.172 38.9919 106.694C47.0014 102.526 52.3732 94.6927 54.9436 83.4065L75.0256 59.853L83.1681 50.309L116.169 11.6229L116.238 11.541C117.362 10.187 117.932 8.45757 117.832 6.70066C117.733 4.94376 116.971 3.28978 115.701 2.07155V2.07155ZM35.424 99.7423C28.7215 103.246 20.7647 102.291 15.7151 101.075C17.6465 97.4978 19.0736 92.7012 19.9619 86.7997C20.8721 80.8089 24.9315 76.8642 27.2743 75.0457C30.6801 72.4025 33.6783 71.5451 34.8378 71.4432L47.0196 82.9114C44.9043 91.1685 41.0015 96.8225 35.4149 99.7423H35.424ZM82.0977 39.5361L75.215 47.6057L51.0171 75.9595L42.7436 68.1648L74.292 40.2989L81.0164 34.3572L103.279 14.6975L82.0977 39.5361Z" fill="url(#paint0_linear_9_19)"/>
<defs>
<linearGradient id="paint0_linear_9_19" x1="0" y1="0" x2="118" y2="110" gradientUnits="userSpaceOnUse">
<stop stop-color="#0E1F40"/>
<stop offset="1" stop-color="#D12B38"/>
</linearGradient>
</defs>
</svg>
