<svg width="319" height="100" viewBox="0 0 319 100" fill="none" xmlns="http://www.w3.org/2000/svg">
<g clip-path="url(#clip0_126_250)">
<path d="M45.6941 41.3074C44.5274 42.367 23.7051 61.3706 23.7051 61.3706C23.3454 61.6962 23.0342 61.5942 22.1057 60.5735L0.622262 37.0158C0.0145621 36.3451 -0.179902 36.0729 0.238196 35.6938L22.3585 15.4994C26.6561 11.582 31.7365 9.90037 37.6287 16.3597L46.4088 25.9781C53.04 33.2442 49.3306 37.9781 45.6941 41.3074ZM35.9709 17.9295C31.3281 12.8408 27.5458 13.7837 23.8461 17.1567L3.53922 35.7133C3.05306 36.1458 3.28642 36.5152 3.60728 36.87L22.7668 57.8566C23.3113 58.4496 23.5593 58.4836 24.0649 58.0219L44.2162 39.6209C47.0165 37.0644 50.5363 33.8566 45.0913 27.8882L35.9709 17.9295Z" fill="white"/>
<path d="M41.6055 39.4947L24.0503 55.5336C23.778 55.7815 23.5641 55.7037 22.8252 54.9309L6.38327 36.8847C5.89711 36.3744 5.76585 36.1654 6.08671 35.8738L23.7586 19.7571C27.045 16.7584 30.9294 15.4753 35.4264 20.4181L42.1549 27.7717C47.2304 33.3319 44.3766 36.9333 41.6055 39.4947ZM34.1673 21.6089C30.6134 17.7207 27.7208 18.4352 24.8914 21.016L8.60988 35.8884C8.2404 36.2237 8.41542 36.5056 8.66336 36.7729L23.3162 52.8118C23.7343 53.2687 23.9239 53.2979 24.2885 52.9382C24.2885 52.9382 39.904 38.6879 40.4533 38.1921C42.5973 36.248 45.3149 33.779 41.1194 29.2152L34.1673 21.6089Z" fill="white"/>
<path d="M38.217 37.993C37.5704 38.5956 24.3372 50.654 24.3372 50.654C24.133 50.8387 23.958 50.7803 23.428 50.202L11.1768 36.7779C10.8316 36.3988 10.7198 36.2433 10.9581 36.0294L24.9303 23.2907C27.3611 21.0549 30.278 20.1023 33.6325 23.7767L38.6254 29.2639C42.4029 33.4049 40.2881 36.1023 38.217 37.993ZM32.7088 24.671C30.0593 21.7548 27.9056 22.3089 25.7956 24.2287C24.9303 25.0063 13.3597 35.558 12.8346 36.0391C12.5624 36.287 12.6936 36.496 12.8735 36.6953L23.7927 48.6564C24.1038 48.9966 24.2448 49.0161 24.5316 48.7536L37.376 37.0355C38.9706 35.5774 40.9784 33.75 37.8621 30.3478L32.7088 24.671Z" fill="white"/>
<path d="M48.9319 55.6597L28.8681 33.6767C28.5424 33.3219 28.6445 33.0109 29.6605 32.0777L53.215 10.5856C53.8859 9.97806 54.1581 9.78365 54.5373 10.2016L74.7421 32.3353C78.6314 36.6269 80.3378 41.7059 73.8768 47.6014L64.2557 56.3499C56.9876 63.0084 52.2524 59.2903 48.9319 55.6597ZM72.3162 45.9392C77.4063 41.3073 76.4631 37.5358 73.0892 33.842L54.5227 13.4969C54.0852 13.0109 53.7157 13.249 53.3657 13.5698L32.3685 32.7193C31.7753 33.2685 31.7364 33.5309 32.2226 34.0169L50.6286 54.1773C53.1858 56.9817 56.3993 60.4957 62.3645 55.057L72.3162 45.9392Z" fill="white"/>
<path d="M50.7405 51.577L34.7167 34.0169C34.4688 33.7447 34.5465 33.5066 35.3244 32.797L53.3463 16.3547C53.8325 15.8687 54.0659 15.7423 54.3575 16.0631L70.4835 33.7302C73.4782 37.0157 74.7617 40.899 69.8223 45.3948L62.4618 52.1262C56.9002 57.2004 53.2783 54.3571 50.7405 51.577ZM68.6263 44.1603C72.5156 40.6074 71.801 37.7107 69.2194 34.882L54.343 18.5856C54.0075 18.221 53.7255 18.396 53.4582 18.6439L37.4149 33.2927C36.9579 33.7107 36.9287 33.9003 37.2885 34.2648C37.2885 34.2648 51.5427 49.8808 52.0386 50.43C53.9832 52.5734 56.4578 55.2611 61.0228 51.0959L68.6263 44.1603Z" fill="white"/>
<path d="M52.2378 48.185L39.5977 34.3138C39.4129 34.1097 39.4713 33.9299 40.0498 33.4001L53.4775 21.1571C53.8567 20.8071 54.0123 20.6953 54.2262 20.9335L66.9685 34.897C69.2048 37.3272 70.1577 40.2433 66.4823 43.5921L60.9741 48.5981C56.832 52.3746 54.129 50.2555 52.2378 48.185ZM65.5635 42.6589C68.4804 40.0149 67.931 37.857 66.0059 35.7525L54.1922 22.8387C53.9491 22.5665 53.7352 22.6929 53.5359 22.8776L41.5715 33.7646C41.2312 34.0757 41.2117 34.2166 41.4791 34.5082L53.1956 47.3442C54.654 48.9432 56.482 50.9457 59.8851 47.8302L65.5635 42.6589Z" fill="white"/>
<path d="M34.1916 58.5369L56.1806 38.4737C56.5404 38.1481 56.8515 38.2502 57.7801 39.2708L79.2781 62.8188C79.8858 63.4895 80.0802 63.7617 79.6621 64.1408L57.5273 84.3401C53.2296 88.2575 48.1493 89.9294 42.2522 83.475L33.477 73.8711C26.8458 66.5807 30.5552 61.8565 34.1916 58.5369ZM43.9148 81.9197C48.5625 87.0035 52.3448 86.0606 56.0688 82.6876L76.366 64.1505C76.8521 63.7131 76.6139 63.3389 76.2931 62.9938L57.1384 42.0023C56.5939 41.4045 56.3459 41.3753 55.8403 41.837L35.6696 60.2137C32.8644 62.7702 29.3495 65.9829 34.7945 71.9464L43.9148 81.9197Z" fill="white"/>
<path d="M38.2753 60.3452L55.8354 44.3063C56.1077 44.0585 56.3459 44.1362 57.0557 44.9139L73.5025 62.9309C73.9886 63.4169 74.115 63.6502 73.799 63.9418L56.1271 80.0633C52.8407 83.0573 48.9563 84.3404 44.4593 79.3975L37.7309 72.0633C32.6553 66.508 35.4945 62.8823 38.2753 60.3452ZM45.699 78.2456C49.2528 82.1338 52.1455 81.4194 54.9749 78.8385L71.2759 63.9661C71.6405 63.6308 71.4655 63.344 71.2224 63.0767L56.5647 47.0378C56.1466 46.5809 55.9618 46.5518 55.5924 46.9114L39.4032 61.6283C37.2641 63.5724 34.5708 66.0415 38.7372 70.6052L45.699 78.2456Z" fill="white"/>
<path d="M41.6687 61.8421L55.5486 49.2054C55.7528 49.0207 55.9278 49.079 56.4577 49.6574L68.7089 63.0766C69.0541 63.4606 69.1659 63.6112 68.9277 63.8299L54.9652 76.5444C52.5344 78.7753 49.6174 79.7327 46.2629 76.0584L41.2603 70.576C37.4829 66.4302 39.5977 63.7327 41.6687 61.8421ZM47.1963 75.1641C49.8459 78.0802 51.9996 77.531 54.1095 75.6064C54.9554 74.8287 66.5212 64.2771 67.0511 63.8008C67.3234 63.548 67.1921 63.3147 67.0073 63.1349L56.0931 51.1787C55.7819 50.8384 55.6409 50.819 55.3492 51.0815L42.5098 62.7996C40.9152 64.2576 38.9073 66.0851 42.0236 69.4873L47.1963 75.1641Z" fill="white"/>
<path d="M30.9538 44.1606C32.0136 45.3271 51.0176 66.1484 51.0176 66.1484C51.3433 66.5032 51.2461 66.8143 50.2251 67.7426L26.6658 89.2347C25.9998 89.8423 25.7276 90.0367 25.3483 89.6187C25.3483 89.6187 5.85335 68.2675 5.14841 67.4899C1.22997 63.1788 -0.452145 58.1144 6.00892 52.2238L15.63 43.4461C22.8981 36.8167 27.6333 40.5251 30.9538 44.1606ZM7.56949 53.8568C2.4794 58.5032 3.42255 62.2894 6.7965 66.0075L25.3629 86.3477C25.8005 86.8338 26.17 86.6005 26.52 86.2748L47.5172 67.1254C48.1103 66.581 48.1444 66.3331 47.6825 65.8277L29.2765 45.6381C26.7193 42.8337 23.5107 39.3198 17.5406 44.7633L7.56949 53.8568Z" fill="white"/>
<path d="M29.1452 48.2478L45.1885 65.7982C45.4364 66.0753 45.3587 66.3086 44.5808 67.0182L26.5394 83.4653C26.029 83.927 25.8199 84.0728 25.5282 83.7569C25.5282 83.7569 9.97111 66.6828 9.4023 66.0947C6.40756 62.8043 5.1241 58.9161 10.0635 54.4301L17.4239 47.7132C22.9856 42.6245 26.6075 45.4629 29.1452 48.2478ZM11.2594 55.6646C7.37015 59.2174 8.08481 62.1093 10.6663 64.938L25.5428 81.2344C25.8782 81.599 26.1602 81.424 26.4276 81.181L42.4709 66.5321C42.9279 66.1141 42.957 65.9246 42.5973 65.5358L27.8472 49.3754C25.9026 47.232 23.4377 44.5394 18.8727 48.7047L11.2594 55.6646Z" fill="white"/>
<path d="M27.6479 51.6354C28.2507 52.3013 40.3123 65.5115 40.3123 65.5115C40.4971 65.7156 40.4387 65.8906 39.8602 66.4252L26.4373 78.6682C26.0533 79.0182 25.8977 79.1251 25.6838 78.887L12.9416 64.9331C10.7101 62.503 9.75235 59.5868 13.4277 56.2284L18.9116 51.2272C23.0537 47.4507 25.7567 49.5698 27.6479 51.6354ZM14.3222 57.1616C11.4053 59.8104 11.9595 61.9635 13.8798 64.0729C14.6577 64.9185 25.2122 76.486 25.6935 77.0109C25.9415 77.2782 26.1505 77.1518 26.3498 76.9672L38.3142 66.0558C38.6545 65.7448 38.674 65.6038 38.4115 65.3122C38.4115 65.3122 27.0645 52.8845 26.6901 52.4811C25.2317 50.8821 23.4037 48.8748 20.0006 51.9951L14.3222 57.1616Z" fill="white"/>
<path d="M100.776 0H98.9675V100H100.776V0Z" fill="white"/>
<path d="M119.999 58.2744V57.3753H121.234C122.624 57.3753 123.606 56.933 124.189 56.0339C124.543 55.4992 124.719 54.2971 124.719 52.4275V31.1007C124.719 29.0351 124.496 27.7471 124.044 27.2125C123.682 26.8389 123.243 26.5495 122.758 26.3647C122.272 26.1799 121.752 26.1043 121.234 26.1432H119.999V25.2246H133.368C138.272 25.2246 141.999 25.7868 144.55 26.9111C147.153 28.0726 149.317 30.0363 150.724 32.515C152.316 35.2666 153.123 38.4015 153.058 41.5794C153.058 46.1805 151.669 50.0233 148.891 53.108C145.78 56.5555 141.035 58.2777 134.656 58.2744H119.999ZM129.372 55.888C131.062 56.2978 132.791 56.5259 134.53 56.5685C136.277 56.6128 138.014 56.2812 139.622 55.5961C141.23 54.911 142.672 53.8884 143.85 52.5976C146.323 49.9504 147.557 46.3603 147.554 41.8273C147.551 37.2943 146.316 33.6944 143.85 31.0278C141.383 28.3935 138.205 27.0764 134.316 27.0764C132.639 27.1081 130.972 27.3465 129.352 27.786L129.372 55.888Z" fill="white"/>
<path d="M177.132 25.1812C181.287 25.1812 184.891 26.7414 187.944 29.8617C190.997 32.982 192.522 36.8702 192.519 41.5263C192.519 46.338 190.983 50.3299 187.91 53.502C186.469 54.9962 184.743 56.1867 182.833 57.0034C180.924 57.8201 178.871 58.2465 176.795 58.2574C174.718 58.2682 172.66 57.8634 170.743 57.0667C168.825 56.27 167.087 55.0977 165.63 53.6187C162.628 50.5211 161.128 46.513 161.128 41.5944C161.128 36.5721 162.86 32.4733 166.325 29.2979C169.258 26.5782 173.132 25.1024 177.132 25.1812V25.1812ZM176.68 26.8872C175.369 26.8453 174.065 27.1079 172.873 27.6544C171.68 28.2008 170.63 29.0163 169.806 30.0366C167.647 32.6515 166.566 36.4781 166.563 41.5166C166.563 46.6814 167.683 50.6571 169.922 53.4437C170.728 54.4696 171.764 55.2914 172.947 55.8427C174.129 56.3941 175.425 56.6595 176.729 56.6175C178.155 56.6453 179.568 56.3466 180.86 55.7442C182.153 55.1419 183.291 54.2519 184.186 53.1424C186.131 50.8224 187.111 47.1659 187.128 42.1727C187.128 36.7584 186.048 32.7211 183.89 30.0609C182.14 27.9419 179.736 26.8839 176.68 26.8872Z" fill="white"/>
<path d="M220.177 58.2843L207.794 30.4982V52.5638C207.794 54.5954 208.008 55.8591 208.431 56.3645C209.015 57.045 209.938 57.3852 211.202 57.3852H212.33V58.2843H201.178V57.3852H202.31C203.667 57.3852 204.629 56.9672 205.198 56.1167C205.542 55.6015 205.714 54.4172 205.714 52.5638V30.9842C205.714 29.5197 205.551 28.465 205.227 27.8202C204.963 27.3041 204.536 26.8892 204.012 26.6391C203.112 26.2612 202.137 26.0949 201.163 26.1531V25.2686H210.254L221.883 51.1106L233.323 25.2686H242.394V26.1726H241.271C239.9 26.1726 238.928 26.5938 238.354 27.4362C238.029 27.9514 237.868 29.1568 237.868 30.9842V52.5638C237.868 54.5954 238.087 55.8591 238.529 56.3645C239.113 57.045 240.032 57.3852 241.296 57.3852H242.404V58.2843H228.792V57.3852H229.929C231.295 57.3852 232.263 56.9672 232.812 56.1167C233.159 55.6015 233.332 54.4172 233.332 52.5638V30.4982L220.969 58.2843H220.177Z" fill="white"/>
<path d="M274.986 26.1048V25.2202H286.328V26.1048H285.123C284.539 26.0837 283.96 26.2201 283.446 26.4997C282.933 26.7794 282.505 27.1919 282.206 27.6941C281.882 28.1834 281.72 29.3255 281.72 31.1206V44.2239C281.72 47.464 281.395 49.9719 280.747 51.7476C280.02 53.6421 278.7 55.2512 276.984 56.3357C275.118 57.6123 272.578 58.2506 269.366 58.2506C265.866 58.2506 263.21 57.6398 261.398 56.4183C259.617 55.2373 258.266 53.5118 257.548 51.4997C257.068 50.0708 256.828 47.4154 256.828 43.5337V30.931C256.828 28.948 256.558 27.652 256.016 27.0428C255.475 26.4337 254.595 26.1258 253.376 26.1194H252.171V25.2202H266.021V26.1048H264.796C263.469 26.1048 262.526 26.5228 261.957 27.3636C261.565 27.9306 261.369 29.1198 261.369 30.931V44.9821C261.383 46.4236 261.496 47.8625 261.709 49.2883C261.842 50.6224 262.265 51.9114 262.949 53.0647C263.605 54.0208 264.498 54.7909 265.54 55.3004C266.831 55.924 268.254 56.2258 269.687 56.1801C271.646 56.2125 273.58 55.7387 275.302 54.8047C276.807 54.0493 278.007 52.8026 278.705 51.2713C279.315 49.8359 279.619 47.4057 279.619 43.9809V30.931C279.619 28.914 279.396 27.6552 278.958 27.1497C278.605 26.785 278.176 26.5024 277.701 26.3218C277.226 26.1413 276.718 26.0672 276.211 26.1048H274.986Z" fill="white"/>
<path d="M315.955 25.1616V36.0875H315.08C314.902 34.3416 314.383 32.6476 313.554 31.1009C312.806 29.8436 311.721 28.8201 310.423 28.1458C309.136 27.4306 307.689 27.0527 306.217 27.0474C304.723 26.9885 303.265 27.5112 302.148 28.5055C301.655 28.9182 301.257 29.4322 300.98 30.0125C300.703 30.5929 300.554 31.2259 300.544 31.8688C300.544 32.8416 300.904 33.78 301.555 34.5031C302.527 35.6695 304.851 37.2232 308.527 39.164C310.665 40.2267 312.722 41.4451 314.681 42.8092C315.735 43.6107 316.598 44.6347 317.209 45.808C317.79 46.9231 318.094 48.1619 318.094 49.4192C318.098 50.5925 317.847 51.7525 317.359 52.8197C316.872 53.8869 316.159 54.8359 315.27 55.6015C313.39 57.3382 310.967 58.205 308.002 58.2017C307.124 58.2067 306.247 58.1368 305.381 57.9927C304.352 57.7696 303.338 57.4856 302.343 57.1422C301.4 56.7912 300.422 56.5451 299.426 56.4083C299.255 56.3998 299.085 56.4265 298.925 56.4867C298.765 56.5469 298.62 56.6393 298.497 56.7582C298.197 57.1866 298.028 57.6933 298.011 58.2163H297.136V47.3682H298.011C298.419 49.6363 298.97 51.3342 299.664 52.4617C300.449 53.6685 301.548 54.6382 302.843 55.2661C304.292 56.0163 305.903 56.4002 307.535 56.384C309.502 56.384 311.058 55.872 312.202 54.8481C312.737 54.405 313.168 53.8496 313.465 53.2213C313.761 52.5931 313.916 51.9073 313.918 51.2126C313.906 50.3857 313.682 49.5756 313.267 48.8603C312.747 47.9847 312.044 47.232 311.205 46.6537C310.59 46.1871 308.911 45.1973 306.169 43.6841C304.143 42.6124 302.194 41.4026 300.335 40.0632C299.251 39.2568 298.343 38.2381 297.666 37.0693C297.062 35.9694 296.752 34.7322 296.766 33.4775C296.762 32.3681 296.995 31.2706 297.451 30.2593C297.908 29.248 298.576 28.3466 299.411 27.6161C301.178 25.9798 303.424 25.1697 306.149 25.1859C308.019 25.2216 309.861 25.6418 311.56 26.4204C312.144 26.7218 312.776 26.9191 313.427 27.0037C313.797 27.0176 314.158 26.8868 314.433 26.6391C314.776 26.2223 314.994 25.7167 315.061 25.1811L315.955 25.1616Z" fill="white"/>
<path d="M148.984 66.4785H153.101V67.2853H149.805V69.8613H153.101V70.6681H149.805V74.7021H148.984V66.4785Z" fill="white"/>
<path d="M157.841 66.4785H158.663V74.7021H157.841V66.4785Z" fill="white"/>
<path d="M163.972 74.7021V66.4785H164.152L169.616 72.7969V66.4785H170.428V74.7021H170.238L164.832 68.4761V74.7021H163.972Z" fill="white"/>
<path d="M175.868 66.4785H180.574V67.2853H176.685V69.8613H180.535V70.6681H176.685V73.9002H180.535V74.7021H175.863L175.868 66.4785Z" fill="white"/>
<path d="M192.067 66.479H193.701C194.326 66.4552 194.953 66.4894 195.572 66.5811C196.038 66.6789 196.457 66.9326 196.759 67.3004C197.074 67.6805 197.238 68.1631 197.22 68.6564C197.23 69.0743 197.118 69.486 196.9 69.8423C196.684 70.1832 196.371 70.4509 196 70.6102C195.484 70.8072 194.933 70.8981 194.381 70.8776L197.337 74.6929H196.316L193.37 70.8776H192.884V74.6929H192.062L192.067 66.479ZM192.889 67.2858V70.0805H194.303C194.715 70.0992 195.126 70.0466 195.519 69.925C195.771 69.8318 195.987 69.6617 196.136 69.4389C196.282 69.2096 196.358 68.9428 196.355 68.671C196.356 68.4033 196.279 68.1412 196.131 67.9177C195.991 67.6981 195.785 67.5281 195.543 67.4316C195.152 67.3182 194.744 67.2705 194.337 67.2907L192.889 67.2858Z" fill="white"/>
<path d="M202.379 66.4785H207.085V67.2853H203.195V69.8613H207.046V70.6681H203.195V73.9002H207.046V74.7021H202.379V66.4785Z" fill="white"/>
<path d="M215.31 66.4785L219.141 74.7021H218.252L216.963 71.9998H213.429L212.15 74.7021H211.227L215.116 66.4785H215.31ZM215.203 68.2282L213.798 71.2027H216.608L215.203 68.2282Z" fill="white"/>
<path d="M223.842 66.4785H224.664V73.9099H227.824V74.7021H223.842V66.4785Z" fill="white"/>
<path d="M239.157 66.4785H243.863V67.2853H239.973V69.8613H243.824V70.6681H239.973V73.9002H243.824V74.7021H239.152L239.157 66.4785Z" fill="white"/>
<path d="M247.864 73.1761L248.564 72.7532C249.05 73.6621 249.619 74.1141 250.265 74.1141C250.537 74.1161 250.804 74.0492 251.043 73.9197C251.27 73.8009 251.459 73.6228 251.592 73.4045C251.716 73.1956 251.782 72.9572 251.782 72.7143C251.777 72.4214 251.68 72.1376 251.505 71.9027C251.102 71.397 250.629 70.9518 250.1 70.5807C249.628 70.2602 249.197 69.8832 248.817 69.4579C248.537 69.0976 248.385 68.655 248.384 68.1991C248.381 67.8579 248.47 67.5222 248.642 67.2271C248.81 66.931 249.059 66.6897 249.361 66.5321C249.672 66.3607 250.022 66.272 250.377 66.2745C250.758 66.2725 251.133 66.3732 251.461 66.5661C251.886 66.8411 252.25 67.2 252.531 67.6208L251.86 68.1311C251.649 67.8161 251.382 67.5426 251.072 67.3243C250.859 67.1939 250.613 67.1249 250.363 67.125C250.061 67.1138 249.768 67.2221 249.546 67.4264C249.443 67.5204 249.361 67.6355 249.307 67.7638C249.252 67.8921 249.226 68.0306 249.23 68.17C249.231 68.3507 249.269 68.5294 249.342 68.6949C249.447 68.8973 249.585 69.0811 249.75 69.2392C249.857 69.3462 250.212 69.6183 250.81 70.0606C251.373 70.4413 251.867 70.9165 252.268 71.4652C252.52 71.8283 252.659 72.2579 252.667 72.6997C252.669 72.9922 252.61 73.282 252.492 73.55C252.375 73.8179 252.203 74.0582 251.986 74.255C251.77 74.4696 251.512 74.6386 251.229 74.7521C250.946 74.8657 250.643 74.9214 250.338 74.916C249.856 74.9222 249.384 74.7834 248.982 74.5175C248.507 74.1662 248.124 73.7062 247.864 73.1761V73.1761Z" fill="white"/>
<path d="M257.023 67.2853V66.4785H261.525V67.2853H259.692V74.7021H258.851V67.2853H257.023Z" fill="white"/>
<path d="M268.569 66.4785L272.385 74.7021H271.51L270.217 71.9998H266.678L265.399 74.7021H264.485L268.375 66.4785H268.569ZM268.462 68.2282L267.038 71.2027H269.843L268.462 68.2282Z" fill="white"/>
<path d="M275.356 67.2853V66.4785H279.858V67.2853H278.025V74.7021H277.189V67.2853H275.356Z" fill="white"/>
<path d="M284.476 66.4785H289.182V67.2853H285.293V69.8613H289.143V70.6681H285.293V73.9002H289.143V74.7021H284.471L284.476 66.4785Z" fill="white"/>
<path d="M318.182 70.5953C318.182 71.4112 317.939 72.2086 317.485 72.8864C317.031 73.5642 316.386 74.0918 315.631 74.4022C314.876 74.7126 314.046 74.7918 313.246 74.6298C312.447 74.4678 311.713 74.0719 311.139 73.4922C310.564 72.9126 310.175 72.1755 310.021 71.3744C309.866 70.5733 309.953 69.7444 310.271 68.9929C310.589 68.2413 311.123 67.6011 311.805 67.1535C312.487 66.7059 313.287 66.471 314.103 66.4787C314.641 66.4806 315.174 66.5887 315.671 66.7967C316.167 67.0047 316.618 67.3087 316.997 67.6911C317.376 68.0735 317.675 68.5268 317.879 69.0252C318.082 69.5235 318.185 70.0571 318.182 70.5953V70.5953ZM310.972 70.5953C310.956 71.0181 311.025 71.4399 311.174 71.8356C311.324 72.2314 311.551 72.5931 311.843 72.8994C312.135 73.2058 312.486 73.4505 312.874 73.619C313.262 73.7876 313.68 73.8767 314.103 73.8809C315.839 73.9101 317.156 72.4228 317.156 70.6197C317.181 70.1993 317.12 69.7782 316.977 69.3821C316.834 68.986 316.612 68.6234 316.323 68.3162C316.035 68.0091 315.687 67.764 315.301 67.5959C314.915 67.4278 314.498 67.3402 314.077 67.3386C313.656 67.3369 313.239 67.4212 312.851 67.5862C312.463 67.7513 312.114 67.9937 311.823 68.2985C311.532 68.6034 311.307 68.9643 311.161 69.3592C311.014 69.7542 310.95 70.1748 310.972 70.5953V70.5953ZM313.442 72.7242H312.513V68.6124C313.022 68.5337 313.535 68.4915 314.05 68.486C314.53 68.4331 315.015 68.5481 315.421 68.8116C315.556 68.9136 315.665 69.0469 315.738 69.2001C315.811 69.3533 315.845 69.5218 315.839 69.6913C315.824 69.9215 315.735 70.1408 315.585 70.3161C315.435 70.4914 315.232 70.6133 315.007 70.6634V70.712C315.396 70.8384 315.591 71.164 315.717 71.7132C315.767 72.059 315.865 72.396 316.009 72.7144H315.036C314.879 72.3996 314.772 72.0616 314.72 71.7132C314.648 71.2855 314.4 71.0862 313.889 71.0862H313.447L313.442 72.7242ZM313.442 70.4155H313.884C314.395 70.4155 314.813 70.2406 314.813 69.8177C314.813 69.3949 314.545 69.1859 313.957 69.1859C313.784 69.1829 313.611 69.2009 313.442 69.2393V70.4155Z" fill="white"/>
</g>
<defs>
<clipPath id="clip0_126_250">
<rect width="318.182" height="100" fill="white"/>
</clipPath>
</defs>
</svg>
