<svg width="85" height="85" viewBox="0 0 85 85" fill="none" xmlns="http://www.w3.org/2000/svg">
<path d="M54.834 32.0254C56.4979 32.0254 57.8467 30.6766 57.8467 29.0127C57.8467 27.3488 56.4979 26 54.834 26C53.1701 26 51.8213 27.3488 51.8213 29.0127C51.8213 30.6766 53.1701 32.0254 54.834 32.0254Z" fill="url(#paint0_linear_12_551)"/>
<path d="M54.2749 43.9162C54.2098 43.1229 54.0971 42.3253 53.9107 41.5493C53.7764 40.9858 53.5943 40.4353 53.3689 39.9021C53.0698 39.1869 52.7663 38.4846 52.3632 37.8214C51.9644 37.1625 51.4962 36.5469 51.0021 35.9574C50.6423 35.5239 50.2478 35.1164 49.823 34.7393C49.4589 34.4185 49.0731 34.1238 48.6873 33.829C48.4662 33.6599 48.2364 33.4995 48.0023 33.3478C47.5255 33.0357 47.0227 32.7626 46.5025 32.5285C45.7959 32.2078 45.072 31.913 44.3221 31.7006C43.5505 31.4838 42.7572 31.3711 41.9596 31.2758C40.5637 31.111 39.1376 31.2324 37.7634 31.5098C37.1956 31.6269 36.632 31.7873 36.0902 31.991C35.3663 32.2598 34.651 32.5675 33.9748 32.9447C33.2985 33.3218 32.6873 33.7813 32.0761 34.2538C31.6296 34.6006 31.2091 34.9777 30.8147 35.3895C30.2902 35.9401 29.8133 36.5469 29.3755 37.1712C29.046 37.635 28.7556 38.1248 28.4999 38.6363C28.2831 39.0742 28.0924 39.5336 27.906 39.9888C27.7976 40.2532 27.7022 40.5177 27.6155 40.7864C27.4378 41.3456 27.3034 41.9135 27.2167 42.4943C27.0954 43.279 27 44.0636 27 44.8568C27 44.9219 27 44.9869 27 45.0519C27.013 45.7975 27.1084 46.5388 27.2254 47.28C27.3164 47.8522 27.4508 48.4158 27.6286 48.9706C27.7153 49.2437 27.815 49.5168 27.9277 49.7812C28.1141 50.2364 28.3005 50.6915 28.5259 51.1294C28.7816 51.6322 29.0721 52.1177 29.3972 52.5772C29.8393 53.2014 30.3205 53.8126 30.8537 54.3632C31.3912 54.918 31.9894 55.3949 32.6006 55.863C33.6713 56.6823 34.8808 57.2762 36.1422 57.74C36.6841 57.9394 37.2389 58.0955 37.8068 58.2082C38.3053 58.3079 38.8125 58.3729 39.3153 58.4336C39.6144 58.4683 39.9135 58.4943 40.2126 58.5029C40.8152 58.5246 41.422 58.5029 42.0203 58.4293C42.8135 58.3339 43.5981 58.2212 44.3654 58.0001C45.1153 57.7877 45.8436 57.4886 46.5545 57.1635C47.066 56.9294 47.5645 56.652 48.037 56.3442C48.6786 55.9237 49.2941 55.4469 49.862 54.9354C50.2825 54.5582 50.6769 54.1464 51.0367 53.7129C51.5222 53.1234 51.9861 52.5122 52.3805 51.8576C52.7837 51.1901 53.0915 50.4791 53.3862 49.7596C53.9107 48.4808 54.1665 47.111 54.2705 45.7368C54.3269 45.1256 54.3269 44.5187 54.2749 43.9162ZM49.3201 45.6805C49.2898 45.9015 49.2595 46.1226 49.2291 46.3437C49.2421 46.2353 49.2551 46.127 49.2681 46.0186C49.1424 46.7728 48.943 47.5141 48.6656 48.225C48.7133 48.1253 48.7566 48.0256 48.7956 47.9259C48.7133 48.1253 48.6266 48.3247 48.5442 48.5198C48.5875 48.4201 48.6266 48.3204 48.6656 48.2207C48.3535 48.9013 47.9763 49.5471 47.5385 50.1497C47.6035 50.0673 47.6729 49.985 47.7336 49.9026C47.6035 50.0717 47.4735 50.2407 47.3434 50.4054C47.4085 50.3188 47.4735 50.2364 47.5342 50.1497C47.0617 50.7262 46.5328 51.2551 45.9563 51.7276C46.043 51.6626 46.1297 51.6019 46.2121 51.5368C46.043 51.6669 45.8739 51.7969 45.7092 51.927C45.7916 51.862 45.8739 51.7969 45.9563 51.7319C45.3494 52.1697 44.7035 52.5512 44.023 52.859C44.1227 52.82 44.2224 52.7809 44.3221 52.7376C44.1227 52.82 43.9233 52.9067 43.7282 52.989C43.8279 52.9457 43.9276 52.9023 44.023 52.859C43.312 53.1321 42.5751 53.3358 41.8252 53.4572C41.9292 53.4485 42.0376 53.4355 42.1416 53.4182C41.9206 53.4485 41.6995 53.4789 41.4784 53.5092C41.5911 53.4919 41.7081 53.4745 41.8208 53.4572C41.0406 53.5395 40.256 53.5395 39.48 53.4572C39.5927 53.4745 39.7098 53.4919 39.8225 53.5092C39.6014 53.4789 39.3803 53.4485 39.1593 53.4182C39.2676 53.4312 39.3717 53.4442 39.48 53.4572C38.7301 53.3315 37.9888 53.1321 37.2779 52.8546C37.3776 52.898 37.4773 52.9457 37.577 52.9847C37.3776 52.9023 37.1782 52.8156 36.9832 52.7333C37.0829 52.7766 37.1826 52.8156 37.2823 52.8546C36.6017 52.5425 35.9515 52.1654 35.3489 51.7232C35.4313 51.7926 35.5136 51.8576 35.6003 51.9226C35.4313 51.7926 35.2622 51.6626 35.0975 51.5325C35.1799 51.5975 35.2666 51.6582 35.3489 51.7232C34.7724 51.2507 34.2479 50.7219 33.7754 50.1497C33.8404 50.2364 33.9011 50.3231 33.9661 50.4054C33.8361 50.2364 33.706 50.0673 33.576 49.9026C33.641 49.985 33.706 50.0673 33.771 50.1497C33.3332 49.5471 32.9561 48.9013 32.6483 48.225C32.6873 48.3204 32.7263 48.4201 32.7654 48.5155C32.683 48.3161 32.5963 48.121 32.5139 47.9216C32.5573 48.0256 32.6006 48.1253 32.6483 48.225C32.3709 47.5141 32.1715 46.7772 32.0458 46.0229C32.0544 46.127 32.0674 46.231 32.0804 46.335C32.0501 46.1139 32.0198 45.8929 31.9937 45.6718C32.0111 45.7888 32.0284 45.9059 32.0458 46.0186C32.0068 45.6284 31.9851 45.234 31.9851 44.8438C31.9851 44.8092 31.9851 44.7745 31.9851 44.7398C31.9894 44.38 32.0068 44.0245 32.0458 43.6648C32.0241 43.7818 32.0067 43.8945 31.9937 44.0115C32.0241 43.7905 32.0544 43.5694 32.0804 43.3483C32.0674 43.4523 32.0544 43.5564 32.0458 43.6604C32.1715 42.9062 32.3752 42.1692 32.6483 41.4583C32.6006 41.558 32.5573 41.6621 32.5139 41.7618C32.5963 41.5624 32.683 41.363 32.7654 41.1679C32.7263 41.2633 32.6873 41.363 32.6483 41.4583C32.9604 40.7777 33.3376 40.1362 33.7754 39.5293C33.706 39.6117 33.641 39.694 33.576 39.7807C33.706 39.6117 33.8361 39.4426 33.9661 39.2779C33.9011 39.3603 33.8404 39.4469 33.7754 39.5293C34.2479 38.9571 34.7724 38.4283 35.3446 37.9601C35.2579 38.0208 35.1755 38.0858 35.0932 38.1508C35.2622 38.0208 35.4313 37.8907 35.596 37.7607C35.5093 37.8257 35.4269 37.8907 35.3446 37.9601C35.9471 37.5223 36.593 37.1451 37.2736 36.833C37.1782 36.872 37.0785 36.9111 36.9832 36.9501C37.1826 36.8677 37.382 36.781 37.577 36.6987C37.473 36.742 37.3733 36.7854 37.2736 36.833C37.9888 36.5556 38.7258 36.3562 39.4844 36.2305C39.376 36.2392 39.272 36.2522 39.1636 36.2695C39.3847 36.2392 39.6057 36.2088 39.8268 36.1828C39.7141 36.2001 39.5971 36.2175 39.4844 36.2348C40.2603 36.1525 41.0449 36.1525 41.8208 36.2348C41.7081 36.2175 41.5954 36.2001 41.4784 36.1828C41.6995 36.2132 41.9206 36.2435 42.1416 36.2695C42.0333 36.2565 41.9292 36.2435 41.8208 36.2305C42.5751 36.3562 43.312 36.5556 44.0273 36.833C43.9276 36.7854 43.8279 36.742 43.7238 36.6987C43.9233 36.781 44.1227 36.8677 44.3177 36.9501C44.2224 36.9111 44.1227 36.8677 44.023 36.833C44.6992 37.1451 45.3451 37.5223 45.9476 37.9601C45.8653 37.8951 45.7829 37.8257 45.7005 37.765C45.8696 37.8951 46.0387 38.0251 46.2034 38.1552C46.1167 38.0901 46.0343 38.0251 45.9476 37.9644C46.5242 38.4369 47.053 38.9614 47.5212 39.538C47.4605 39.4513 47.3955 39.3689 47.3304 39.2866C47.4605 39.4556 47.5905 39.6247 47.7206 39.7894C47.6556 39.7027 47.5905 39.6203 47.5212 39.538C47.9633 40.1449 48.3405 40.7908 48.6526 41.4713C48.6136 41.3716 48.5745 41.2719 48.5312 41.1722C48.6136 41.3716 48.7003 41.571 48.7826 41.7661C48.7393 41.6664 48.6959 41.5667 48.6526 41.467C48.93 42.1822 49.1294 42.9192 49.2551 43.6734C49.2464 43.5651 49.2334 43.4567 49.2161 43.3483C49.2464 43.5694 49.2768 43.7905 49.3071 44.0115C49.2898 43.8988 49.2768 43.7861 49.2551 43.6778C49.3331 44.4494 49.3331 45.2296 49.2551 46.0012C49.2855 45.9059 49.3028 45.7932 49.3201 45.6805Z" fill="url(#paint1_linear_12_551)"/>
<path fill-rule="evenodd" clip-rule="evenodd" d="M83.497 29.3178C84.1641 29.8073 84.6264 30.3389 84.8838 31.1285C85.1359 31.9075 84.9521 32.755 84.5791 33.4603C84.2324 34.113 83.4708 34.6552 82.7721 34.85C82.0892 35.0395 81.0439 34.9763 80.4451 34.5447L80.3821 34.4973C79.2963 33.7527 78.237 32.9703 77.1785 32.1885C76.9874 32.0474 76.7964 31.9063 76.6052 31.7654V81.971C76.6052 83.608 75.2185 84.9977 73.5848 84.9977H73.4797C72.9438 85.0012 72.4054 85 71.8679 84.9988C71.5994 84.9982 71.3311 84.9977 71.0634 84.9977H11.401C9.76205 84.9977 8.38054 83.608 8.38054 81.971V81.8763C8.37704 81.3959 8.3782 80.9155 8.37937 80.4336C8.37995 80.1921 8.38054 79.9501 8.38054 79.7076V31.7128C7.83959 32.1121 7.29771 32.5114 6.75528 32.911C6.01774 33.4545 5.27921 33.9987 4.54067 34.5447C3.89981 35.0184 2.95954 35.0184 2.21363 34.85C1.44146 34.6763 0.821614 34.1078 0.406635 33.4603C-0.00834452 32.8181 -0.0976438 31.8549 0.101966 31.1285C0.322588 30.3126 0.837373 29.802 1.50449 29.3125L1.56753 29.2651C2.61466 28.486 3.66647 27.7116 4.71828 26.9372C5.24409 26.5501 5.76991 26.163 6.29514 25.7753C7.92787 24.5705 9.56192 23.3645 11.196 22.1585C12.8319 20.9511 14.4677 19.7437 16.1023 18.5376C19.8634 15.7636 23.6245 12.9896 27.3908 10.2104C28.9482 9.06291 30.5043 7.91414 32.0604 6.76537C33.6167 5.61651 35.1729 4.46766 36.7304 3.32012C37.3844 2.83848 38.0371 2.35685 38.6898 1.87522C39.3425 1.39359 39.9951 0.911953 40.6491 0.43032C41.4318 -0.148692 42.9079 -0.138164 43.6958 0.43032L43.7588 0.477694C44.8331 1.21605 45.887 1.99511 46.9399 2.77337C47.4933 3.18243 48.0464 3.59128 48.602 3.99388C50.4127 5.31004 52.2233 6.62463 54.034 7.93851H73.6111H76.1111V10.4385V23.961C77.2439 24.7829 78.377 25.6051 79.5101 26.428L83.497 29.3178ZM71.1111 20.331V12.9385H60.9257C62.0423 13.7488 63.1586 14.5588 64.275 15.3688C66.1872 16.7562 68.0993 18.1437 70.0128 19.5325C70.3789 19.7987 70.7449 20.0649 71.1111 20.331ZM14.4214 78.9444H70.5644V27.3754C68.915 26.1806 67.2603 24.9804 65.6109 23.7803C64.2048 22.7598 62.7986 21.7399 61.3927 20.7203C58.97 18.9631 56.548 17.2065 54.1281 15.4478C52.5443 14.2977 50.9606 13.1488 49.3768 12C47.7931 10.8512 46.2093 9.70241 44.6256 8.55228C43.8166 7.968 43.0024 7.37846 42.1935 6.78893C41.5379 7.27529 40.8767 7.75596 40.2155 8.23664C39.7746 8.55711 39.3338 8.87757 38.8946 9.19972C36.6005 10.8961 34.3038 12.59 32.0082 14.283C31.0343 15.0012 30.0607 15.7193 29.0875 16.4374C27.2056 17.8253 25.3225 19.2146 23.4394 20.6039C21.5588 21.9912 19.6782 23.3786 17.799 24.7646C17.562 24.9392 17.3252 25.1135 17.0885 25.2877C16.1978 25.9434 15.3096 26.5972 14.4214 27.2544V28.465V78.9444Z" fill="url(#paint2_linear_12_551)"/>
<defs>
<linearGradient id="paint0_linear_12_551" x1="54.834" y1="26" x2="54.834" y2="32.0254" gradientUnits="userSpaceOnUse">
<stop stop-color="#0E1F40"/>
<stop offset="1" stop-color="#E21C34"/>
</linearGradient>
<linearGradient id="paint1_linear_12_551" x1="40.6567" y1="31.2012" x2="40.6567" y2="58.5109" gradientUnits="userSpaceOnUse">
<stop stop-color="#0E1F40"/>
<stop offset="1" stop-color="#E21C34"/>
</linearGradient>
<linearGradient id="paint2_linear_12_551" x1="41.6238" y1="-11.9298" x2="41.6238" y2="92.4562" gradientUnits="userSpaceOnUse">
<stop stop-color="#131F40"/>
<stop offset="1" stop-color="#DC1C35"/>
</linearGradient>
</defs>
</svg>
