<svg width="252" height="100" viewBox="0 0 252 100" fill="none" xmlns="http://www.w3.org/2000/svg">
<g clip-path="url(#clip0_48_26)">
<path d="M169.362 64.5483C169.217 64.4484 169.045 64.3971 168.869 64.4018C168.714 64.4036 168.563 64.4512 168.434 64.5388C168.291 64.6319 168.167 64.752 168.069 64.8924C167.955 65.0436 167.849 65.201 167.752 65.3638L167.222 66.3927L165.415 69.8968L164.186 72.3114L161.138 66.4087L160.605 65.3797C160.523 65.2135 160.425 65.0556 160.313 64.9083C160.212 64.7718 160.09 64.6524 159.951 64.5547C159.819 64.4647 159.663 64.417 159.503 64.4177C159.332 64.4153 159.165 64.4665 159.024 64.5642C158.948 64.6269 158.889 64.7075 158.853 64.7987C158.816 64.89 158.803 64.989 158.814 65.0867V79.1285C158.81 79.2085 158.827 79.2883 158.864 79.3594C158.901 79.4305 158.956 79.4905 159.024 79.533C159.166 79.6262 159.333 79.674 159.503 79.67C159.669 79.6709 159.831 79.6233 159.97 79.533C160.04 79.492 160.097 79.4326 160.136 79.3613C160.174 79.29 160.193 79.2095 160.189 79.1285V67.3261L163.148 73.0314L163.624 73.9488C163.683 74.0852 163.776 74.2039 163.894 74.2928C163.974 74.3484 164.067 74.3804 164.164 74.3852C164.27 74.3841 164.373 74.3483 164.456 74.2833C164.57 74.193 164.664 74.0789 164.729 73.9488L165.212 73.0314L165.431 72.6141L168.184 67.3866V79.1285C168.18 79.2095 168.199 79.29 168.237 79.3613C168.276 79.4326 168.333 79.492 168.403 79.533C168.545 79.6237 168.71 79.6718 168.879 79.6718C169.048 79.6718 169.213 79.6237 169.355 79.533C169.423 79.4905 169.478 79.4305 169.515 79.3594C169.552 79.2883 169.569 79.2085 169.565 79.1285V65.0707C169.575 64.9737 169.562 64.8757 169.526 64.7848C169.491 64.6939 169.435 64.6128 169.362 64.5483Z" fill="white"/>
<path d="M179.344 73.0313C179.295 72.587 179.188 72.1511 179.026 71.7348C178.934 71.5022 178.816 71.281 178.674 71.0754C178.449 70.7478 178.166 70.4648 177.839 70.2408C177.175 69.8239 176.398 69.6226 175.616 69.6642C175.178 69.6645 174.741 69.7169 174.314 69.8203C173.937 69.903 173.573 70.037 173.232 70.2185C172.946 70.381 172.806 70.5371 172.806 70.7282C172.81 70.8989 172.861 71.0653 172.952 71.2092C172.988 71.2841 173.043 71.3475 173.113 71.392C173.183 71.4366 173.263 71.4604 173.346 71.4609C173.496 71.4473 173.64 71.3934 173.762 71.3048C173.978 71.1716 174.21 71.0647 174.451 70.9862C174.815 70.8775 175.195 70.8281 175.575 70.8397C176.092 70.8117 176.603 70.9623 177.023 71.2666C177.374 71.5501 177.64 71.9263 177.791 72.3528C177.869 72.5685 177.929 72.79 177.972 73.0154C178.013 73.235 178.033 73.4579 178.032 73.6812V74.1845H176.969C176.116 74.1735 175.265 74.2525 174.429 74.4202C173.788 74.5351 173.195 74.8339 172.721 75.2803C172.505 75.5169 172.339 75.795 172.234 76.0979C172.128 76.4007 172.086 76.7219 172.108 77.0419C172.108 77.9785 172.381 78.6697 172.94 79.1221C173.232 79.3624 173.569 79.5431 173.93 79.654C174.256 79.7544 174.596 79.8038 174.937 79.8006C175.291 79.8044 175.644 79.755 175.984 79.654C176.262 79.5753 176.527 79.455 176.769 79.2973C177.253 78.9888 177.694 78.6171 178.08 78.1919V79.1125C178.08 79.1871 178.097 79.2608 178.13 79.3276C178.163 79.3945 178.211 79.4528 178.27 79.498C178.377 79.5925 178.513 79.6466 178.655 79.6509H178.705C178.882 79.6617 179.056 79.606 179.194 79.4948C179.25 79.4474 179.295 79.3884 179.326 79.3218C179.356 79.2552 179.372 79.1827 179.372 79.1093V73.6971C179.376 73.4748 179.366 73.2525 179.344 73.0313ZM178.029 76.4749C178.007 76.836 177.862 77.1787 177.62 77.4465C177.335 77.7987 176.986 78.0928 176.591 78.3129C176.192 78.5438 175.74 78.6658 175.28 78.6665C174.821 78.6784 174.372 78.531 174.01 78.2492C173.824 78.0877 173.678 77.8843 173.586 77.6557C173.493 77.427 173.455 77.1796 173.476 76.9336C173.458 76.706 173.497 76.4776 173.591 76.2693C173.684 76.061 173.828 75.8798 174.01 75.7422C174.421 75.4721 174.892 75.3049 175.381 75.2548C175.971 75.1738 176.567 75.1345 177.162 75.137H178.039L178.029 76.4749Z" fill="white"/>
<path d="M187.354 69.8426C187.307 69.786 187.247 69.7407 187.18 69.7098C187.113 69.679 187.04 69.6634 186.967 69.6643H186.24C185.917 69.6603 185.595 69.7076 185.287 69.8044C185.194 69.8337 185.103 69.8677 185.014 69.9064C184.358 70.1986 183.812 70.6914 183.452 71.3144V70.2918C183.454 70.2199 183.438 70.1485 183.405 70.0845C183.373 70.0204 183.324 69.9657 183.265 69.9255C183.132 69.8321 182.973 69.7841 182.811 69.7885C182.644 69.7851 182.48 69.8328 182.341 69.9255C182.279 69.964 182.228 70.018 182.193 70.0822C182.158 70.1464 182.14 70.2186 182.141 70.2918V79.1285C182.144 79.2018 182.163 79.2735 182.198 79.3381C182.232 79.4027 182.281 79.4585 182.341 79.5012C182.472 79.6131 182.639 79.6731 182.811 79.67C182.988 79.6752 183.161 79.6152 183.296 79.5012C183.356 79.4585 183.405 79.4027 183.439 79.3381C183.474 79.2735 183.494 79.2018 183.496 79.1285V73.9679C183.494 73.6523 183.531 73.3376 183.608 73.0314C183.668 72.7845 183.763 72.5475 183.89 72.3274C184.138 71.895 184.493 71.5348 184.922 71.2825C185.039 71.2145 185.161 71.1559 185.287 71.1073C185.589 70.9818 185.913 70.9168 186.24 70.9162H186.967C187.041 70.9175 187.115 70.9012 187.183 70.8686C187.25 70.8359 187.309 70.7879 187.354 70.7282C187.454 70.6027 187.509 70.4465 187.509 70.2854C187.509 70.1244 187.454 69.9682 187.354 69.8426Z" fill="white"/>
<path d="M197.127 78.7526L193.526 73.4646L194.021 73.0314L196.587 70.7696C196.638 70.7207 196.677 70.6608 196.701 70.5944C196.722 70.5306 196.732 70.464 196.733 70.3969C196.732 70.2779 196.697 70.1616 196.631 70.0625C196.563 69.9658 196.473 69.8871 196.368 69.8331C196.271 69.777 196.162 69.7473 196.05 69.7471C195.933 69.7525 195.821 69.7974 195.733 69.8745L192.196 73.0314L191.901 73.2926L190.653 74.4043V64.2361C190.654 64.1632 190.637 64.0912 190.602 64.027C190.568 63.9629 190.517 63.9087 190.456 63.8698C190.311 63.7739 190.14 63.726 189.967 63.7328C189.8 63.7283 189.636 63.7762 189.497 63.8698C189.436 63.9084 189.385 63.9626 189.351 64.0269C189.317 64.0912 189.301 64.1634 189.303 64.2361V79.1285C189.305 79.2013 189.323 79.2729 189.357 79.3375C189.391 79.4021 189.438 79.4581 189.497 79.5012C189.628 79.6126 189.795 79.6725 189.967 79.67C190.145 79.6755 190.319 79.6154 190.456 79.5012C190.514 79.4578 190.563 79.4018 190.597 79.3373C190.631 79.2728 190.65 79.2014 190.653 79.1285V76.013L191.901 74.914L192.57 74.3247L196.063 79.4821C196.118 79.5641 196.195 79.6292 196.285 79.67C196.347 79.6983 196.414 79.7124 196.482 79.7114C196.558 79.7116 196.633 79.6975 196.704 79.67C196.745 79.6557 196.784 79.6387 196.822 79.619C196.937 79.5571 197.035 79.466 197.104 79.3546C197.17 79.2611 197.206 79.1503 197.209 79.0361C197.21 78.9354 197.182 78.8367 197.127 78.7526Z" fill="white"/>
<path d="M204.486 75.0573C204.704 75.0581 204.921 75.0421 205.137 75.0095L205.35 74.9745C205.62 74.9211 205.862 74.7704 206.029 74.5508C206.24 74.2088 206.334 73.8076 206.299 73.4072C206.299 73.2817 206.293 73.1562 206.28 73.0313C206.236 72.4767 206.056 71.9416 205.756 71.4736C205.193 70.622 204.329 70.0153 203.339 69.7749C202.349 69.5345 201.305 69.6781 200.416 70.1771C199.826 70.5073 199.329 70.9818 198.971 71.5564C198.759 71.8922 198.606 72.2617 198.517 72.6491C198.488 72.775 198.467 72.9027 198.454 73.0313C198.435 73.1697 198.427 73.3091 198.428 73.4486V75.7549C198.426 76.0504 198.456 76.3451 198.517 76.6342C198.605 77.0518 198.77 77.4493 199.003 77.8064C199.396 78.4016 199.946 78.8767 200.59 79.1794C201.848 79.7301 203.258 79.8203 204.575 79.4342C204.769 79.3703 204.959 79.2937 205.143 79.2049C205.327 79.1129 205.5 78.9996 205.658 78.8672C205.908 78.6474 206.035 78.4626 206.035 78.3097C206.032 78.217 206.007 78.1264 205.962 78.0453C205.909 77.9469 205.838 77.8594 205.753 77.7873C205.669 77.7138 205.562 77.6731 205.451 77.6726C205.339 77.6725 205.229 77.7034 205.134 77.7618C205.07 77.7958 205.01 77.8352 204.953 77.8797C204.73 78.0452 204.488 78.1832 204.232 78.2906C203.821 78.4471 203.382 78.5175 202.943 78.4977C202.126 78.5287 201.324 78.2742 200.673 77.7778C200.381 77.5444 200.148 77.2456 199.993 76.9053C199.837 76.565 199.763 76.1928 199.778 75.8187V75.0573H204.486ZM200.136 72.0183C200.373 71.641 200.7 71.3297 201.089 71.1136C201.497 70.8853 201.958 70.7678 202.426 70.7729C202.894 70.7779 203.352 70.9052 203.756 71.1423C204.137 71.377 204.452 71.706 204.67 72.098C204.832 72.3826 204.939 72.6947 204.988 73.0186C205.003 73.1294 205.011 73.2412 205.01 73.3531C205.025 73.4581 205.014 73.5653 204.977 73.6649C204.941 73.7644 204.88 73.8533 204.8 73.9233C204.538 74.0359 204.253 74.0819 203.969 74.0571H199.781V73.2734C199.774 73.1886 199.774 73.1034 199.781 73.0186C199.821 72.6621 199.942 72.3197 200.136 72.0183Z" fill="white"/>
<path d="M212.404 78.4372H211.744C211.065 78.4372 210.582 78.2938 210.299 78.0358C210.017 77.7778 209.864 77.2808 209.864 76.6023V70.9162H212.569C212.634 70.9177 212.698 70.9034 212.757 70.8746C212.815 70.8457 212.865 70.8032 212.903 70.7505C212.987 70.6364 213.03 70.4973 213.027 70.3555C213.031 70.2126 212.987 70.0724 212.903 69.9573C212.865 69.9043 212.815 69.8613 212.757 69.8319C212.699 69.8025 212.635 69.7876 212.569 69.7885H209.864V65.5932C209.865 65.5189 209.846 65.4458 209.809 65.3814C209.772 65.317 209.719 65.2637 209.655 65.2268C209.512 65.1354 209.345 65.0878 209.175 65.0898C209.017 65.0929 208.863 65.1403 208.731 65.2268C208.665 65.2621 208.609 65.3149 208.571 65.3795C208.532 65.444 208.512 65.5179 208.512 65.5932V76.6023C208.512 77.6727 208.794 78.4499 209.363 78.9405C209.931 79.4311 210.712 79.6572 211.744 79.6668H212.404C212.488 79.6712 212.571 79.6566 212.648 79.6241C212.725 79.5915 212.794 79.5419 212.849 79.4789C212.953 79.3574 213.009 79.2024 213.008 79.0424C213.01 78.8843 212.953 78.731 212.849 78.6124C212.792 78.5526 212.723 78.5059 212.646 78.4757C212.569 78.4454 212.487 78.4323 212.404 78.4372Z" fill="white"/>
<path d="M216.116 69.798C215.97 69.7023 215.798 69.6545 215.624 69.6611C215.458 69.6562 215.294 69.7041 215.157 69.798C215.095 69.8377 215.044 69.893 215.01 69.9583C214.975 70.0236 214.958 70.0968 214.96 70.1708V79.1221C214.963 79.196 214.982 79.2685 215.016 79.3341C215.05 79.3997 215.098 79.4568 215.157 79.5012C215.287 79.6131 215.453 79.6732 215.624 79.67C215.803 79.6753 215.978 79.6153 216.116 79.5012C216.174 79.4562 216.221 79.3989 216.255 79.3333C216.288 79.2678 216.307 79.1957 216.31 79.1221V70.1708C216.311 70.0972 216.295 70.0245 216.261 69.9593C216.227 69.8941 216.177 69.8386 216.116 69.798ZM216.281 65.3829C216.194 65.2994 216.09 65.2341 215.978 65.1909C215.865 65.1477 215.744 65.1274 215.624 65.1313C215.388 65.1314 215.161 65.2213 214.989 65.3829C214.904 65.4588 214.835 65.552 214.789 65.6564C214.742 65.7608 214.719 65.8738 214.719 65.9882C214.717 66.1304 214.755 66.2703 214.827 66.3927C214.87 66.4714 214.925 66.5433 214.989 66.6062C215.072 66.6895 215.171 66.7554 215.28 66.8002C215.389 66.845 215.506 66.8679 215.624 66.8674C215.745 66.8718 215.867 66.8509 215.98 66.8059C216.093 66.761 216.195 66.6929 216.281 66.6062C216.344 66.5432 216.398 66.4713 216.44 66.3927C216.507 66.2686 216.542 66.1295 216.541 65.9882C216.542 65.8747 216.519 65.7623 216.475 65.6581C216.43 65.5539 216.364 65.4602 216.281 65.3829Z" fill="white"/>
<path d="M226.946 73.0313C226.887 72.5301 226.728 72.0458 226.479 71.6074C226.156 71.0327 225.694 70.5485 225.136 70.1994C225.085 70.1676 225.038 70.1389 224.987 70.1134C224.472 69.8158 223.888 69.6608 223.294 69.6642C222.675 69.6437 222.064 69.815 221.545 70.1548C221.118 70.4358 220.762 70.8119 220.504 71.2538V70.2982C220.505 70.2263 220.488 70.1553 220.456 70.0914C220.423 70.0275 220.375 69.9727 220.316 69.9318C220.182 69.8392 220.022 69.7913 219.859 69.7949C219.692 69.7918 219.528 69.8396 219.389 69.9318C219.328 69.9712 219.278 70.0254 219.244 70.0895C219.209 70.1536 219.192 70.2254 219.192 70.2982V79.1284C219.195 79.2014 219.214 79.2728 219.249 79.3373C219.283 79.4018 219.331 79.4578 219.389 79.5011C219.52 79.6125 219.687 79.6725 219.859 79.67C220.037 79.6748 220.211 79.6149 220.348 79.5011C220.407 79.4578 220.455 79.4018 220.489 79.3373C220.523 79.2728 220.542 79.2014 220.545 79.1284V73.5856C220.543 73.4052 220.558 73.2249 220.589 73.0473C220.635 72.7347 220.743 72.4345 220.907 72.1649C221.142 71.7856 221.47 71.4731 221.859 71.257C222.224 71.0479 222.636 70.9381 223.056 70.9385C223.516 70.9352 223.966 71.0706 224.349 71.3271C224.586 71.4917 224.8 71.689 224.984 71.9132C225.089 72.0394 225.184 72.1748 225.266 72.3178C225.402 72.5458 225.501 72.7943 225.558 73.0536C225.602 73.2297 225.623 73.4106 225.622 73.592V79.1284C225.618 79.2095 225.637 79.29 225.675 79.3613C225.714 79.4326 225.771 79.4919 225.841 79.533C225.974 79.6214 226.129 79.669 226.288 79.67C226.458 79.6732 226.625 79.6255 226.768 79.533C226.835 79.4898 226.889 79.4297 226.925 79.3586C226.962 79.2876 226.978 79.2081 226.974 79.1284V73.5856C226.977 73.4004 226.967 73.2153 226.946 73.0313Z" fill="white"/>
<path d="M237.185 70.5625C237.38 70.4402 237.595 70.3529 237.82 70.3045C237.928 70.2739 238.025 70.2131 238.099 70.1293C238.18 70.0348 238.221 69.9126 238.214 69.7885C238.209 69.6359 238.148 69.4906 238.042 69.3807C237.974 69.3118 237.892 69.2585 237.802 69.2244C237.711 69.1904 237.615 69.1763 237.518 69.1832C237.197 69.2005 236.892 69.3314 236.658 69.5527C236.321 69.8616 236.051 70.2368 235.864 70.6549C235.513 70.3348 235.102 70.0879 234.654 69.9286C234.171 69.7531 233.66 69.6657 233.146 69.6706C232.62 69.6648 232.096 69.7477 231.597 69.9159C231.401 69.9816 231.21 70.0648 231.029 70.1643C230.443 70.4723 229.959 70.9436 229.635 71.5214C229.375 71.9859 229.217 72.5007 229.171 73.0313C229.153 73.1899 229.145 73.3495 229.146 73.5092V74.3947C229.135 74.9693 229.243 75.5398 229.463 76.0703C229.672 76.5668 229.999 77.0044 230.416 77.3445C230.096 77.4963 229.812 77.7133 229.581 77.9816C229.353 78.2788 229.24 78.649 229.263 79.0233C229.259 79.2406 229.296 79.4567 229.371 79.6604C229.425 79.8107 229.512 79.9468 229.625 80.0586C229.885 80.316 230.198 80.5119 230.543 80.632C230.027 80.8369 229.56 81.1484 229.171 81.5462C228.964 81.7625 228.803 82.0191 228.699 82.3002C228.595 82.5813 228.549 82.8809 228.565 83.1804C228.554 83.789 228.774 84.379 229.181 84.8305C229.642 85.3238 230.218 85.6939 230.857 85.9072C231.098 85.9968 231.345 86.0681 231.597 86.1207C232.152 86.2396 232.718 86.2973 233.286 86.2927C234.085 86.3062 234.88 86.1801 235.636 85.92C236.265 85.7047 236.822 85.3201 237.248 84.8082C237.655 84.2846 237.866 83.6338 237.842 82.9702C237.881 82.3706 237.694 81.7782 237.318 81.3105C236.952 80.9089 236.486 80.6112 235.969 80.4472C235.404 80.257 234.821 80.1267 234.229 80.0586L232.496 79.8611C232.192 79.8285 231.892 79.7721 231.597 79.6923L231.495 79.6604C231.377 79.6247 231.26 79.5822 231.146 79.533C230.99 79.481 230.854 79.3805 230.758 79.2459C230.662 79.1114 230.611 78.9498 230.613 78.7844C230.606 78.6775 230.623 78.5704 230.663 78.4712C230.704 78.3719 230.765 78.283 230.845 78.211C230.995 78.0821 231.157 77.9689 231.33 77.8733C231.417 77.9178 231.506 77.9571 231.597 77.9912C232.084 78.1812 232.602 78.2753 233.124 78.2683C233.856 78.2824 234.579 78.1104 235.226 77.7682C235.824 77.4476 236.32 76.9653 236.658 76.3761C236.999 75.7691 237.175 75.0822 237.166 74.3852V73.4996C237.166 73.3399 237.157 73.1803 237.137 73.0218C237.116 72.7794 237.072 72.5395 237.007 72.305C236.905 71.9441 236.739 71.6044 236.518 71.3016C236.671 71.0004 236.901 70.7454 237.185 70.5625ZM231.603 81.1608C231.767 81.0872 231.934 81.0234 232.105 80.9697C232.461 81.0174 232.886 81.062 233.375 81.1098C233.853 81.1547 234.327 81.2335 234.794 81.3455C235.212 81.4354 235.602 81.6232 235.934 81.8935C236.09 82.0363 236.211 82.2123 236.29 82.4086C236.368 82.6049 236.402 82.8164 236.388 83.0275C236.392 83.3341 236.318 83.6366 236.174 83.9068C236.029 84.177 235.819 84.406 235.563 84.5725C234.877 84.9988 234.078 85.2034 233.273 85.1586C232.708 85.1711 232.145 85.0893 231.607 84.9165C231.356 84.8343 231.118 84.7186 230.899 84.5725C230.636 84.4147 230.419 84.1916 230.269 83.9248C230.118 83.658 230.038 83.3565 230.038 83.0498C230.029 82.7929 230.082 82.5376 230.193 82.3058C230.303 82.0739 230.468 81.8723 230.673 81.7183C230.958 81.4933 231.271 81.3059 231.603 81.1608ZM235.686 73.5155V74.4011C235.712 75.1127 235.476 75.8088 235.023 76.357C234.794 76.6191 234.508 76.8257 234.188 76.9614C233.868 77.0971 233.522 77.1584 233.175 77.1407C232.61 77.1627 232.054 76.9871 231.603 76.6437C231.488 76.5551 231.381 76.4548 231.286 76.3443C230.829 75.7939 230.59 75.0945 230.613 74.3788V73.5155C230.612 73.3557 230.622 73.196 230.645 73.0377C230.709 72.5052 230.93 72.0041 231.28 71.5978C231.373 71.4796 231.479 71.3727 231.597 71.2793C232.046 70.9517 232.592 70.7856 233.146 70.8078C233.496 70.7876 233.846 70.8466 234.169 70.9807C234.493 71.1147 234.783 71.3202 235.016 71.5819C235.368 71.9868 235.589 72.4886 235.651 73.0218C235.675 73.1831 235.687 73.346 235.686 73.5092V73.5155Z" fill="white"/>
<path d="M185.592 47.3942C185.506 47.2402 185.399 47.0987 185.274 46.9737C185.121 46.8166 184.937 46.693 184.734 46.6108C184.53 46.5285 184.312 46.4894 184.093 46.4959H181.925V41.5233C181.938 41.2043 181.851 40.8893 181.677 40.6221C181.502 40.3549 181.25 40.1488 180.953 40.0325C180.788 39.9592 180.636 39.8923 180.452 39.835C179.939 39.6671 179.403 39.5821 178.864 39.5833H178.664C178.179 39.5969 177.697 39.6806 177.235 39.8318C177.07 39.8891 176.902 39.956 176.743 40.0293C176.451 40.1487 176.202 40.3561 176.031 40.623C175.861 40.89 175.777 41.2033 175.791 41.5201V46.5086H170.231V46.4863L172.038 42.8612L173.54 39.8477L176.848 33.2091L178.651 29.5871L179.286 28.3129C179.415 28.0631 179.494 27.7904 179.518 27.5102C179.524 27.1714 179.429 26.8386 179.245 26.5545C179.168 26.4389 179.079 26.3321 178.979 26.236C178.878 26.1387 178.772 26.0473 178.661 25.962C178.376 25.7431 178.063 25.5641 177.731 25.43C177.329 25.2576 176.898 25.1625 176.461 25.1497C175.96 25.1496 175.467 25.2697 175.023 25.5001C174.587 25.7486 174.228 26.1136 173.987 26.5545C173.949 26.6182 173.911 26.6851 173.876 26.752L172.051 30.3325L170.597 33.1995L167.234 39.8381L165.431 43.3932L163.866 46.4768L162.678 48.8181C162.582 49.0169 162.504 49.2237 162.443 49.4361C162.386 49.635 162.355 49.8407 162.351 50.0478C162.334 50.3341 162.375 50.6211 162.474 50.8903C162.573 51.1595 162.727 51.4052 162.925 51.6116C163.124 51.8181 163.363 51.9808 163.628 52.0894C163.892 52.1981 164.177 52.2502 164.463 52.2426H175.788V57.8268C175.786 58.1353 175.876 58.4374 176.045 58.6948C176.215 58.9522 176.457 59.1534 176.74 59.273C177.335 59.5807 177.992 59.7484 178.661 59.7636H178.861C179.596 59.7674 180.321 59.5913 180.972 59.2507C181.259 59.1337 181.505 58.9337 181.678 58.6761C181.851 58.4185 181.943 58.1151 181.944 57.8045V52.2426H184.112C184.344 52.2322 184.571 52.1695 184.775 52.0592C184.98 51.9489 185.157 51.7938 185.294 51.6055C185.357 51.529 185.421 51.4462 185.484 51.3538C185.885 50.7733 186.095 50.0817 186.084 49.3756C186.09 48.684 185.921 48.0022 185.592 47.3942Z" fill="white"/>
<path d="M211.277 33.1964C211.096 31.9356 210.672 30.7224 210.026 29.6254C209.251 28.3295 208.141 27.2684 206.813 26.5545C206.572 26.4239 206.328 26.3061 206.07 26.1978C205.813 26.0895 205.454 25.9525 205.137 25.8474C203.631 25.3616 202.057 25.1228 200.476 25.1402C199.821 25.139 199.167 25.1773 198.517 25.2548C197.274 25.3984 196.059 25.7202 194.907 26.2105C194.65 26.3188 194.402 26.4399 194.167 26.5673C193.31 27.0302 192.542 27.6442 191.901 28.3798C191.554 28.7755 191.243 29.202 190.973 29.6541C190.331 30.752 189.907 31.9648 189.726 33.225C189.585 34.1174 189.517 35.0197 189.522 35.9232V49.0252C189.502 50.4149 189.677 51.8005 190.043 53.1409C190.256 53.8971 190.569 54.6214 190.973 55.2943C191.245 55.7451 191.556 56.1714 191.901 56.5686C192.726 57.5106 193.754 58.2514 194.907 58.7347C196.059 59.2235 197.275 59.5453 198.517 59.6904C199.167 59.7652 199.822 59.8024 200.476 59.8019C202.057 59.8192 203.631 59.5804 205.137 59.0947C205.454 58.9896 205.772 58.8749 206.07 58.7443C207.722 58.0575 209.109 56.8557 210.026 55.3166C210.432 54.6438 210.746 53.9196 210.96 53.1632C211.325 51.8227 211.499 50.437 211.477 49.0475V35.8945C211.482 34.9912 211.415 34.089 211.277 33.1964ZM205.391 48.9966C205.401 49.7277 205.316 50.457 205.137 51.1659C204.958 51.885 204.593 52.5441 204.08 53.0772L204.048 53.1059C203.178 53.9554 201.987 54.3801 200.476 54.3801C199.811 54.3893 199.149 54.2881 198.517 54.0807C197.92 53.8767 197.377 53.539 196.93 53.0931L196.901 53.0645C196.054 52.1895 195.631 50.8272 195.631 48.9774V35.8945C195.608 34.9769 195.751 34.0626 196.053 33.1964C196.243 32.6787 196.537 32.2058 196.917 31.8075C197.372 31.3477 197.928 30.9999 198.539 30.7913C199.171 30.5838 199.833 30.4826 200.498 30.4918C202.029 30.4918 203.23 30.9304 204.102 31.8075C204.489 32.2039 204.79 32.6769 204.985 33.1964C205.053 33.3702 205.111 33.5479 205.159 33.7283C205.338 34.4361 205.423 35.1644 205.413 35.8945L205.391 48.9966Z" fill="white"/>
<path d="M224.885 26.5545C224.734 26.1851 224.463 25.8776 224.117 25.6817C223.576 25.3315 222.947 25.1436 222.304 25.1402C222.055 25.1351 221.808 25.1761 221.574 25.2612C221.355 25.3397 221.152 25.4585 220.977 25.6116L219.745 26.5673L218.357 27.6312L215.421 29.8611C215.056 30.0962 214.763 30.4266 214.573 30.8168C214.386 31.2073 214.289 31.6353 214.29 32.0687C214.289 32.4525 214.368 32.8323 214.522 33.1836C214.607 33.3829 214.713 33.572 214.84 33.7474C214.992 33.9888 215.204 34.187 215.455 34.323C215.705 34.4591 215.987 34.5285 216.271 34.5247C216.451 34.5204 216.628 34.4804 216.792 34.4068C216.99 34.3195 217.18 34.2128 217.357 34.0883L218.364 33.0785L218.862 32.5784V57.8173C218.862 58.1248 218.952 58.4256 219.121 58.6819C219.291 58.9381 219.532 59.1383 219.815 59.2571C220.47 59.5814 221.191 59.75 221.921 59.75C222.652 59.75 223.373 59.5814 224.028 59.2571C224.311 59.1383 224.552 58.9381 224.721 58.6819C224.891 58.4256 224.981 58.1248 224.98 57.8173V27.1247C224.984 26.9304 224.951 26.7372 224.885 26.5545Z" fill="white"/>
<path d="M36.8294 26.5545C36.6476 26.0496 36.4246 25.5605 36.1627 25.0924C35.4298 23.7424 34.3764 22.5946 33.0957 21.7508C32.7406 21.519 32.3693 21.3135 31.9845 21.136C30.252 20.356 28.3779 19.9428 26.4791 19.9223H26.0632H15.7954C15.1256 19.8989 14.4724 20.1338 13.9698 20.5785C13.7458 20.7699 13.5657 21.0077 13.4419 21.2754C13.318 21.5432 13.2533 21.8347 13.2522 22.1298V57.4892C13.2461 57.8424 13.3421 58.1898 13.5286 58.4894C13.7151 58.789 13.9841 59.028 14.3031 59.1775C15.0082 59.5581 15.7964 59.7573 16.597 59.7573C17.3977 59.7573 18.1858 59.5581 18.8909 59.1775C19.1311 59.0561 19.3423 58.8843 19.5105 58.6738C19.6787 58.4633 19.7998 58.219 19.8657 57.9574C19.9008 57.8039 19.9179 57.6467 19.9165 57.4892V45.2727H25.6409C25.9203 45.2727 26.1965 45.2663 26.4696 45.2536C28.2978 45.1883 30.0966 44.772 31.7686 44.0271C32.2264 43.8196 32.667 43.5756 33.0862 43.2977C34.3316 42.4521 35.3641 41.3278 36.1024 40.0134C36.1373 39.956 36.169 39.8955 36.2008 39.835C37.1363 38.1148 37.6316 35.9019 37.6867 33.1964C37.6867 33.0339 37.6867 32.8778 37.6867 32.7026V32.384C37.7395 30.4057 37.4494 28.4332 36.8294 26.5545ZM19.9101 26.236H25.6409C25.9177 26.236 26.1943 26.2509 26.4696 26.2806C26.902 26.3261 27.328 26.4201 27.7395 26.5609C28.4622 26.809 29.1094 27.2389 29.6191 27.8096C30.5589 28.8715 31.0288 30.4642 31.0288 32.5879V33.2537C31.0288 35.3922 30.5589 36.985 29.6191 38.032C28.802 38.9246 27.6772 39.4723 26.4727 39.5642C26.1975 39.5939 25.9209 39.6088 25.6441 39.6088H19.9006L19.9101 26.236Z" fill="white"/>
<path d="M61.7052 35.8913C61.0593 35.4922 60.3144 35.2836 59.5558 35.2892C59.4859 35.2892 59.4129 35.2892 59.3399 35.2892C58.5495 35.2758 57.7713 35.4867 57.0952 35.8977C56.4412 36.3022 56.111 36.7737 56.111 37.3152V49.4967C56.1072 50.262 55.8989 51.0122 55.5077 51.6692C55.1971 52.2259 54.7832 52.7178 54.2885 53.1186C54.1711 53.2142 54.0472 53.3034 53.9202 53.3894C53.6164 53.5923 53.2849 53.7501 52.936 53.8577C52.5253 53.9873 52.0966 54.0508 51.666 54.0456C50.8731 54.0524 50.0972 53.8144 49.4436 53.3639C49.3293 53.2875 49.2181 53.2046 49.1261 53.1186C48.6165 52.719 48.1858 52.2274 47.8561 51.6692C47.4601 51.0143 47.2514 50.2627 47.2528 49.4967V37.3567C47.2528 36.8597 46.9353 36.401 46.3258 35.9646L46.2972 35.9423C45.626 35.4937 44.8333 35.2634 44.0271 35.2829C43.2141 35.2652 42.4149 35.4951 41.7348 35.9423C41.0807 36.3787 40.7505 36.8502 40.7505 37.3567V49.4903C40.7465 50.7365 41.0006 51.9698 41.4966 53.1123C41.7066 53.6007 41.955 54.0715 42.2396 54.5203C43.2364 56.0935 44.6038 57.3964 46.221 58.3142L46.3258 58.3747C47.9758 59.2945 49.8356 59.7687 51.7232 59.7509C52.1262 59.7507 52.5289 59.7294 52.9297 59.6872C54.4146 59.539 55.852 59.0799 57.1492 58.3397C58.0279 57.8425 58.8381 57.2321 59.559 56.524C60.155 55.9358 60.6812 55.2805 61.1274 54.5712C61.4201 54.1058 61.676 53.6179 61.8926 53.1123C62.3753 51.9664 62.6215 50.7343 62.6164 49.4903V37.3089C62.6133 36.7673 62.3085 36.2959 61.7052 35.8913Z" fill="white"/>
<path d="M86.7747 40.4243C86.6699 40.2204 86.5683 40.0229 86.4572 39.835C86.346 39.647 86.1778 39.3731 86.0285 39.1565C85.3818 38.1964 84.5688 37.3602 83.6283 36.6877C82.4003 35.7942 80.9256 35.3065 79.4088 35.2924H79.2945C77.7868 35.2432 76.3004 35.6602 75.0369 36.487C74.1465 37.0709 73.3829 37.8293 72.7922 38.7169C72.7033 38.857 72.6207 39.0036 72.5445 39.1501V37.6242C72.5459 37.3274 72.4698 37.0354 72.3239 36.7772C72.178 36.5191 71.9673 36.3037 71.7127 36.1525C71.104 35.7635 70.3924 35.5681 69.6712 35.5919C68.8618 35.5597 68.0594 35.7538 67.3535 36.1525C67.0833 36.2918 66.8562 36.5025 66.6967 36.7619C66.5373 37.0213 66.4515 37.3195 66.4486 37.6242V57.658C66.4486 58.1677 66.7502 58.6391 67.3535 59.0819C68.0354 59.5458 68.8481 59.777 69.6712 59.7413C70.4932 59.7678 71.3031 59.5374 71.9889 59.0819C72.3177 58.8729 72.5929 58.5892 72.7922 58.2537C72.8934 58.0715 72.9469 57.8666 72.9477 57.658V45.6135C72.9247 44.7603 73.1332 43.9169 73.551 43.1734C73.9268 42.5209 74.4651 41.9776 75.1131 41.5966C75.7482 41.2113 76.4807 41.0184 77.2225 41.041C77.9643 41.0636 78.6838 41.3008 79.2945 41.724L79.4088 41.8068C80.013 42.2317 80.516 42.7854 80.882 43.4282C81.2656 44.092 81.4662 44.8462 81.463 45.6135V57.658C81.463 58.3354 81.8154 58.8526 82.5202 59.2093C83.1899 59.556 83.932 59.7384 84.6855 59.7413C85.1431 59.7452 85.5991 59.6874 86.0413 59.5693C86.3627 59.4875 86.6729 59.3666 86.9652 59.2093C87.2615 59.0747 87.5122 58.8562 87.6865 58.5806C87.8608 58.305 87.9511 57.9843 87.9462 57.658V45.6135C87.9731 43.8149 87.5714 42.0358 86.7747 40.4243Z" fill="white"/>
<path d="M105.593 54.2591H103.627C102.586 54.2591 101.856 54.0584 101.437 53.657C101.018 53.2556 100.806 52.5665 100.802 51.5896V40.5549H106.748C107.002 40.5613 107.251 40.4963 107.47 40.3673C107.688 40.2384 107.866 40.0507 107.983 39.8255C108.264 39.3258 108.412 38.7618 108.412 38.1881C108.412 37.6144 108.264 37.0504 107.983 36.5507C107.866 36.3252 107.688 36.137 107.47 36.0075C107.252 35.878 107.002 35.8124 106.748 35.8181H100.805V27.1534C100.805 26.5482 100.461 26.0608 99.7729 25.6913C99.0946 25.3274 98.3372 25.137 97.5679 25.137C96.7987 25.137 96.0413 25.3274 95.3629 25.6913C94.6517 26.0608 94.2961 26.5482 94.2961 27.1534V35.8149H91.172C90.9185 35.8092 90.6685 35.8749 90.4502 36.0043C90.232 36.1338 90.0542 36.322 89.9369 36.5475C89.6559 37.0472 89.5083 37.6112 89.5083 38.1849C89.5083 38.7586 89.6559 39.3226 89.9369 39.8223C90.0543 40.0475 90.2322 40.2352 90.4505 40.3641C90.6688 40.4931 90.9188 40.5581 91.172 40.5518H94.2961V51.6055C94.2961 54.4279 95.0941 56.4942 96.6901 57.8046C98.286 59.1149 100.595 59.769 103.618 59.7668H105.583C106.536 59.7668 107.221 59.4833 107.672 58.9131C108.114 58.3748 108.355 57.6991 108.355 57.0018C108.35 56.3189 108.109 55.6589 107.672 55.1351C107.231 54.5458 106.532 54.2591 105.593 54.2591Z" fill="white"/>
<path d="M125.728 24.2578C130.497 24.2527 135.138 25.801 138.955 28.6697C139.102 28.7825 139.284 28.8381 139.469 28.8264C139.653 28.8147 139.827 28.7364 139.958 28.606L146.683 21.8655C146.758 21.7889 146.817 21.6973 146.854 21.5967C146.892 21.496 146.909 21.3886 146.903 21.2811C146.897 21.1737 146.869 21.0687 146.82 20.973C146.771 20.8772 146.703 20.7927 146.619 20.725C140.719 15.9076 133.345 13.2774 125.738 13.2774C118.131 13.2774 110.756 15.9076 104.856 20.725C104.773 20.7927 104.704 20.8772 104.656 20.973C104.607 21.0687 104.578 21.1737 104.572 21.2811C104.566 21.3886 104.583 21.496 104.621 21.5967C104.659 21.6973 104.717 21.7889 104.792 21.8655L111.504 28.5997C111.636 28.7299 111.809 28.8083 111.994 28.8206C112.178 28.8329 112.36 28.7782 112.508 28.6666C116.323 25.8 120.962 24.253 125.728 24.2578Z" fill="white"/>
<path d="M147.87 46.4736C147.876 51.2746 146.325 55.9472 143.451 59.7859C143.346 59.9225 143.295 60.0923 143.306 60.264C143.317 60.4356 143.39 60.5974 143.511 60.7193L150.299 67.5331C150.368 67.6031 150.452 67.6578 150.543 67.6937C150.635 67.7297 150.733 67.7461 150.831 67.7419C150.929 67.7377 151.026 67.713 151.114 67.6694C151.202 67.6258 151.28 67.5642 151.344 67.4885C156.175 61.5588 158.814 54.1356 158.814 46.4768C158.814 38.818 156.175 31.3948 151.344 25.4651C151.28 25.3894 151.202 25.3277 151.113 25.2841C151.025 25.2404 150.928 25.2157 150.83 25.2115C150.731 25.2073 150.633 25.2237 150.541 25.2597C150.449 25.2957 150.366 25.3504 150.296 25.4205L143.508 32.228C143.386 32.35 143.313 32.5124 143.302 32.6848C143.291 32.8572 143.342 33.0277 143.448 33.1645C146.323 37.0013 147.876 41.6731 147.87 46.4736Z" fill="white"/>
<path d="M125.728 68.6895C120.938 68.6957 116.275 67.1357 112.447 64.2457C112.315 64.1435 112.15 64.0931 111.983 64.1036C111.816 64.1141 111.658 64.185 111.539 64.303L104.726 71.1391C104.658 71.207 104.604 71.2884 104.569 71.3781C104.534 71.4679 104.518 71.564 104.522 71.6603C104.527 71.7566 104.551 71.8509 104.594 71.9373C104.636 72.0236 104.696 72.1001 104.77 72.1617C110.682 77.0154 118.086 79.6672 125.725 79.6672C133.364 79.6672 140.768 77.0154 146.68 72.1617C146.753 72.1001 146.813 72.0238 146.855 71.9378C146.898 71.8517 146.922 71.7577 146.926 71.6618C146.93 71.5659 146.914 71.4702 146.879 71.3808C146.845 71.2913 146.792 71.2101 146.724 71.1423L139.907 64.303C139.789 64.1852 139.632 64.1145 139.466 64.104C139.299 64.0934 139.135 64.1438 139.003 64.2457C135.176 67.134 130.517 68.6939 125.728 68.6895Z" fill="white"/>
<path d="M125.728 59.7509C133.037 59.7509 138.961 53.8064 138.961 46.4736C138.961 39.1408 133.037 33.1964 125.728 33.1964C118.42 33.1964 112.495 39.1408 112.495 46.4736C112.495 53.8064 118.42 59.7509 125.728 59.7509Z" fill="#D12B38"/>
</g>
<defs>
<clipPath id="clip0_48_26">
<rect width="251.456" height="100" fill="white"/>
</clipPath>
</defs>
</svg>
