<svg width="97" height="110" viewBox="0 0 97 110" fill="none" xmlns="http://www.w3.org/2000/svg">
<path fill-rule="evenodd" clip-rule="evenodd" d="M35.2619 25.5626V34.2256C35.2619 35.7612 36.9208 36.724 38.2542 35.9621L68.0452 18.9386C69.4257 18.1497 69.3782 16.1432 67.9618 15.4206L38.1708 0.221114C36.8401 -0.457809 35.2619 0.508759 35.2619 2.00264V14.5328C28.9427 16.3241 23.0228 19.3896 17.8809 23.5741C10.4432 29.6271 4.96746 37.7496 2.14606 46.9146C-0.675347 56.0796 -0.715654 65.8754 2.03023 75.0633C4.77612 84.2512 10.1849 92.4185 17.5725 98.5324C24.9602 104.646 33.9949 108.432 43.5342 109.411C53.0735 110.391 62.689 108.519 71.1646 104.034C79.6403 99.548 86.5955 92.6498 91.1507 84.2113C94.8722 77.3172 96.8553 69.648 96.9653 61.8657C97.0063 58.9686 94.4174 56.8467 91.5328 57.1188C88.6482 57.3909 86.5684 59.9575 86.4409 62.8521C86.1894 68.5594 84.6527 74.1605 81.9176 79.2272C78.3482 85.8395 72.8981 91.2449 66.2566 94.7598C59.6152 98.2747 52.0806 99.7412 44.6056 98.9739C37.1306 98.2066 30.0511 95.24 24.2622 90.4491C18.4732 85.6583 14.235 79.2584 12.0833 72.0588C9.93166 64.8593 9.96325 57.1833 12.1741 50.0017C14.3849 42.82 18.6757 36.4553 24.5039 31.7122C27.7466 29.0733 31.3841 27.0023 35.2619 25.5626Z" fill="url(#paint0_linear_8_25)"/>
<defs>
<linearGradient id="paint0_linear_8_25" x1="-39.5" y1="-20.5" x2="120.5" y2="146.5" gradientUnits="userSpaceOnUse">
<stop stop-color="#0E1F40"/>
<stop offset="1" stop-color="#E21C34"/>
</linearGradient>
</defs>
</svg>
