<svg width="96" height="111" viewBox="0 0 96 111" fill="none" xmlns="http://www.w3.org/2000/svg">
<path d="M81.11 76.4047C75.7089 70.9783 69.0701 66.9455 61.7651 64.6534C73.3546 59.2588 81.4083 47.5019 81.4083 33.8972C81.4119 15.2071 66.2048 0 47.5147 0C28.8245 0 13.6175 15.2071 13.6175 33.9027C13.6175 47.5074 21.6748 59.2642 33.2606 64.6588C23.6189 67.7034 15.1974 73.7396 9.21705 81.8924C3.2367 90.0452 0.00833666 99.8908 0 110.002H5.45644C5.45644 98.8473 9.88756 88.1496 17.775 80.2622C25.6625 72.3747 36.3601 67.9436 47.5147 67.9436C58.6692 67.9436 69.3669 72.3747 77.2543 80.2622C85.1418 88.1496 89.5729 98.8473 89.5729 110.002H95.0294C95.0462 103.76 93.8247 97.5758 91.4354 91.8088C89.0461 86.0418 85.5366 80.8061 81.11 76.4047V76.4047ZM19.0739 33.9027C19.0739 18.2172 31.831 5.45644 47.5147 5.45644C63.1983 5.45644 75.9555 18.2172 75.9555 33.9027C75.9555 49.5881 63.1947 62.338 47.5147 62.338C31.8347 62.338 19.0739 49.5808 19.0739 33.9027Z" fill="url(#paint0_linear_9_37)"/>
<defs>
<linearGradient id="paint0_linear_9_37" x1="47.5148" y1="0" x2="47.5148" y2="110.002" gradientUnits="userSpaceOnUse">
<stop stop-color="#0E1F40"/>
<stop offset="1" stop-color="#D12B38"/>
</linearGradient>
</defs>
</svg>
